<svg width="47" height="46" viewBox="0 0 47 46" fill="none" xmlns="http://www.w3.org/2000/svg">
<g clip-path="url(#clip0_1_923)">
<path d="M27.2426 25.3441C28.2109 24.0228 28.6446 22.3846 28.4569 20.7572C28.2692 19.1299 27.474 17.6334 26.2304 16.5672C24.9867 15.501 23.3863 14.9437 21.7494 15.0068C20.1125 15.0699 18.5598 15.7487 17.4019 16.9074C16.2439 18.0662 15.5662 19.6194 15.5043 21.2563C15.4424 22.8933 16.0009 24.4933 17.068 25.7361C18.1351 26.979 19.6321 27.7732 21.2596 27.9597C22.8871 28.1462 24.525 27.7113 25.8456 26.7421H25.8446C25.8746 26.7821 25.9066 26.8201 25.9426 26.8571L29.7926 30.7071C29.9801 30.8947 30.2345 31.0002 30.4997 31.0003C30.765 31.0004 31.0195 30.8951 31.2071 30.7076C31.3947 30.5201 31.5002 30.2657 31.5003 30.0005C31.5004 29.7352 31.3951 29.4807 31.2076 29.2931L27.3576 25.4431C27.3218 25.4069 27.2834 25.3735 27.2426 25.3431V25.3441ZM27.5006 21.5001C27.5006 22.2224 27.3583 22.9376 27.0819 23.6049C26.8055 24.2722 26.4004 24.8785 25.8897 25.3892C25.379 25.8999 24.7726 26.305 24.1054 26.5814C23.4381 26.8578 22.7229 27.0001 22.0006 27.0001C21.2783 27.0001 20.5631 26.8578 19.8958 26.5814C19.2285 26.305 18.6222 25.8999 18.1115 25.3892C17.6008 24.8785 17.1957 24.2722 16.9193 23.6049C16.6429 22.9376 16.5006 22.2224 16.5006 21.5001C16.5006 20.0414 17.0801 18.6425 18.1115 17.611C19.143 16.5796 20.5419 16.0001 22.0006 16.0001C23.4593 16.0001 24.8582 16.5796 25.8897 17.611C26.9211 18.6425 27.5006 20.0414 27.5006 21.5001Z" fill="#23A6F0"/>
</g>
<defs>
<clipPath id="clip0_1_923">
<rect width="16.0006" height="16.0003" fill="white" transform="translate(15.4997 15)"/>
</clipPath>
</defs>
</svg>
